<?xml version="1.0" encoding="UTF-8" standalone="no"?>
<!DOCTYPE svg PUBLIC "-//W3C//DTD SVG 1.1//EN"
 "http://www.w3.org/Graphics/SVG/1.1/DTD/svg11.dtd">
<!-- Generated by graphviz version 2.40.1 (20161225.0304)
 -->
<!-- Title: %3 Pages: 1 -->
<svg width="231pt" height="260pt"
 viewBox="0.00 0.00 231.29 260.00" xmlns="http://www.w3.org/2000/svg" xmlns:xlink="http://www.w3.org/1999/xlink">
<g id="graph0" class="graph" transform="scale(1 1) rotate(0) translate(4 256)">
<title>%3</title>
<polygon fill="#ffffff" stroke="transparent" points="-4,4 -4,-256 227.2883,-256 227.2883,4 -4,4"/>
<!-- aws_cluster_fargate -->
<g id="node1" class="node">
<title>aws_cluster_fargate</title>
<ellipse fill="none" stroke="#000000" cx="124.2941" cy="-162" rx="81.4863" ry="18"/>
<text text-anchor="middle" x="124.2941" y="-158.3" font-family="Times,serif" font-size="14.00" fill="#000000">aws_cluster_fargate</text>
</g>
<!-- local_build_init -->
<g id="node2" class="node">
<title>local_build_init</title>
<ellipse fill="none" stroke="#000000" cx="66.2941" cy="-90" rx="66.0889" ry="18"/>
<text text-anchor="middle" x="66.2941" y="-86.3" font-family="Times,serif" font-size="14.00" fill="#000000">local_build_init</text>
</g>
<!-- aws_cluster_fargate&#45;&gt;local_build_init -->
<g id="edge1" class="edge">
<title>aws_cluster_fargate&#45;&gt;local_build_init</title>
<path fill="none" stroke="#000000" d="M109.957,-144.2022C103.0036,-135.5704 94.524,-125.0439 86.8935,-115.5717"/>
<polygon fill="#000000" stroke="#000000" points="89.4653,-113.1849 80.4663,-107.593 84.014,-117.5763 89.4653,-113.1849"/>
</g>
<!-- aws_ecr -->
<g id="node3" class="node">
<title>aws_ecr</title>
<ellipse fill="none" stroke="#000000" cx="160.2941" cy="-18" rx="39.7935" ry="18"/>
<text text-anchor="middle" x="160.2941" y="-14.3" font-family="Times,serif" font-size="14.00" fill="#000000">aws_ecr</text>
</g>
<!-- aws_cluster_fargate&#45;&gt;aws_ecr -->
<g id="edge2" class="edge">
<title>aws_cluster_fargate&#45;&gt;aws_ecr</title>
<path fill="none" stroke="#000000" d="M130.5625,-143.6343C133.9847,-133.2474 138.152,-119.9788 141.2941,-108 146.688,-87.4364 151.61,-63.9219 155.0923,-46.0864"/>
<polygon fill="#000000" stroke="#000000" points="158.5709,-46.5303 157.0173,-36.0499 151.6962,-45.2116 158.5709,-46.5303"/>
</g>
<!-- local_build_init&#45;&gt;aws_ecr -->
<g id="edge6" class="edge">
<title>local_build_init&#45;&gt;aws_ecr</title>
<path fill="none" stroke="#000000" d="M88.5708,-72.937C101.4293,-63.0879 117.7393,-50.5952 131.5559,-40.0122"/>
<polygon fill="#000000" stroke="#000000" points="133.9729,-42.5697 139.7834,-33.7103 129.7163,-37.0126 133.9729,-42.5697"/>
</g>
<!-- aws_codebuild -->
<g id="node4" class="node">
<title>aws_codebuild</title>
<ellipse fill="none" stroke="#000000" cx="124.2941" cy="-234" rx="63.8893" ry="18"/>
<text text-anchor="middle" x="124.2941" y="-230.3" font-family="Times,serif" font-size="14.00" fill="#000000">aws_codebuild</text>
</g>
<!-- aws_codebuild&#45;&gt;aws_cluster_fargate -->
<g id="edge3" class="edge">
<title>aws_codebuild&#45;&gt;aws_cluster_fargate</title>
<path fill="none" stroke="#000000" d="M124.2941,-215.8314C124.2941,-208.131 124.2941,-198.9743 124.2941,-190.4166"/>
<polygon fill="#000000" stroke="#000000" points="127.7942,-190.4132 124.2941,-180.4133 120.7942,-190.4133 127.7942,-190.4132"/>
</g>
<!-- aws_codebuild&#45;&gt;local_build_init -->
<g id="edge5" class="edge">
<title>aws_codebuild&#45;&gt;local_build_init</title>
<path fill="none" stroke="#000000" d="M83.2667,-220.1537C64.8373,-211.6455 44.8879,-198.7107 34.2941,-180 22.7969,-159.6938 33.6073,-134.5188 45.6754,-115.9627"/>
<polygon fill="#000000" stroke="#000000" points="48.5911,-117.9002 51.4202,-107.6901 42.8414,-113.9075 48.5911,-117.9002"/>
</g>
<!-- aws_codebuild&#45;&gt;aws_ecr -->
<g id="edge4" class="edge">
<title>aws_codebuild&#45;&gt;aws_ecr</title>
<path fill="none" stroke="#000000" d="M165.3215,-220.1537C183.7509,-211.6455 203.7003,-198.7107 214.2941,-180 239.7703,-135.0042 205.4669,-76.1236 181.0147,-43.1637"/>
<polygon fill="#000000" stroke="#000000" points="183.604,-40.7882 174.7451,-34.977 178.0465,-45.0443 183.604,-40.7882"/>
</g>
</g>
</svg>
